<svg data-v-423bf9ae="" xmlns="http://www.w3.org/2000/svg" viewBox="0 0 818 90" class="iconLeft"><!----><!----><!----><g data-v-423bf9ae="" id="4bb982a6-d29f-48f1-8cf8-42f9d7708292" fill="white" transform="matrix(4.166666501098216,0,0,4.166666501098216,204.2085462303624,-0.7916673107280019)"><path d="M13.87 7.70C13.87 7.70 13.45 3.79 7.49 3.79C3.40 3.79 0.84 6.16 0.84 9.44C0.84 12.70 3.54 15.05 7.08 15.05C10.30 15.05 11.20 13.26 11.20 13.26L11.20 14.87L13.54 14.87L13.54 9.09L6.76 9.09L6.76 10.61L11.20 10.61C11.20 10.61 10.91 13.33 7.48 13.33C4.94 13.33 3.43 11.66 3.43 9.44C3.43 7.29 4.72 5.52 7.48 5.52C11.27 5.52 11.31 8.40 11.31 8.40ZM23.74 12.74L23.87 9.84C23.93 8.26 22.60 6.92 20.08 6.92C16.16 6.92 15.41 9.56 15.41 9.56L17.82 10.18C17.82 10.18 17.84 8.46 19.96 8.46C21.39 8.46 21.56 9.32 21.56 10.04C17.30 10.40 15.78 11.90 15.78 13.20C15.78 14.38 16.65 15.05 18.07 15.05C20.48 15.05 21.80 12.54 21.87 12.42C21.87 13.99 22.29 15.05 23.95 15.05C25.17 15.05 25.82 14.32 25.82 14.32L25.35 12.81C25.35 12.81 24.95 13.51 24.30 13.51C23.88 13.51 23.73 13.17 23.74 12.74ZM18.19 12.73C18.19 11.98 19.01 11.02 21.56 10.78L21.56 11.33C21.56 11.33 20.62 13.51 19.00 13.51C18.30 13.51 18.19 13.06 18.19 12.73ZM27.08 5.77L29.39 5.77L29.39 3.99L27.08 3.99ZM27.08 14.87L29.39 14.87L29.39 7.10L27.08 7.10ZM38.49 14.87L40.80 14.87L40.80 10.11C40.80 8.13 39.73 6.92 37.16 6.92C34.08 6.92 33.91 9.30 33.91 9.30L33.25 7.10L31.91 7.10L31.91 14.87L34.22 14.87L34.22 10.16C34.22 10.16 34.69 8.46 36.53 8.46C37.77 8.46 38.49 8.96 38.49 10.00ZM58.35 14.87L61.46 14.87L55.33 8.68L61.04 3.99L57.93 3.99L51.88 9.11L51.88 3.99L49.39 3.99L49.39 14.87L51.88 14.87L51.88 11.54L53.72 10.01ZM68.74 14.87L71.05 14.87L71.05 10.11C71.05 8.13 69.99 6.92 67.41 6.92C64.33 6.92 64.16 9.30 64.16 9.30L63.50 7.10L62.16 7.10L62.16 14.87L64.47 14.87L64.47 10.16C64.47 10.16 64.95 8.46 66.78 8.46C68.03 8.46 68.74 8.96 68.74 10.00ZM73.15 10.98C73.15 13.26 74.94 15.05 77.95 15.05C80.99 15.05 82.78 13.26 82.78 10.98C82.78 8.71 80.99 6.92 77.95 6.92C74.94 6.92 73.15 8.71 73.15 10.98ZM75.57 10.98C75.57 9.70 76.15 8.46 77.95 8.46C79.74 8.46 80.36 9.70 80.36 10.98C80.36 12.25 79.74 13.51 77.95 13.51C76.15 13.51 75.57 12.25 75.57 10.98ZM87.07 14.87L89.35 14.87L91.29 9.25L93.25 14.87L95.54 14.87L98.84 7.10L96.31 7.10L94.32 12.82L92.41 7.10L90.19 7.10L88.28 12.82L86.30 7.10L83.76 7.10ZM100.24 14.87L102.55 14.87L102.55 3.79C102.55 3.79 101.37 3.99 100.24 3.99ZM106.97 11.12L113.78 11.26C113.99 10.15 113.75 6.92 109.37 6.92C106.47 6.92 104.65 8.67 104.65 10.98C104.65 13.61 106.86 15.05 109.37 15.05C113.40 15.05 113.99 12.29 113.99 12.29L111.75 11.72C111.75 11.72 111.73 13.51 109.61 13.51C107.72 13.51 106.99 12.32 106.97 11.12ZM111.38 9.88L107.11 10.02C107.11 10.02 107.39 8.39 109.33 8.39C111.19 8.39 111.38 9.88 111.38 9.88ZM122.51 8.33C122.51 8.33 121.93 6.92 119.76 6.92C117.39 6.92 115.67 8.61 115.67 10.99C115.67 13.37 117.39 15.05 119.77 15.05C122.28 15.05 122.95 13.09 122.95 13.09L123.49 14.87L124.84 14.87L124.84 3.79C124.84 3.79 123.68 3.99 122.51 3.99ZM120.50 13.51C118.85 13.51 118.09 12.40 118.09 10.99C118.09 9.58 118.85 8.46 120.50 8.46C122.19 8.46 122.89 9.70 122.89 10.99C122.89 12.28 122.19 13.51 120.50 13.51ZM131.35 12.49C134.08 12.49 135.72 11.28 135.72 9.72C135.72 9.21 135.55 8.75 135.23 8.34C134.95 7.83 134.93 7.48 135.73 7.48C135.90 7.48 136.39 7.50 136.93 7.59L136.40 5.87C136.02 5.84 135.59 5.81 135.39 5.81C134.64 5.81 134.18 6.22 134.18 6.92C134.18 7.14 134.32 7.41 134.51 7.70C133.76 7.21 132.66 6.92 131.32 6.92C128.55 6.92 126.92 8.13 126.92 9.72C126.92 10.77 127.64 11.63 128.93 12.11C128.41 12.18 126.97 12.43 126.97 13.40C126.97 14.55 128.73 14.78 128.91 14.80C128.69 14.83 126.52 15.05 126.52 16.42C126.52 17.21 127.26 18.19 129.71 18.19L132.80 18.19C135.21 18.19 136.70 17.30 136.70 15.85C136.70 14.74 136.07 13.51 133.50 13.51L130.63 13.51C129.70 13.51 129.22 13.36 129.22 12.91C129.22 12.43 129.70 12.38 129.99 12.39C130.40 12.46 130.86 12.49 131.35 12.49ZM129.26 9.72C129.26 8.89 129.79 8.27 131.32 8.27C132.85 8.27 133.35 8.89 133.35 9.72C133.35 10.51 132.85 11.13 131.32 11.13C129.79 11.13 129.26 10.51 129.26 9.72ZM133.04 15.04C133.97 15.09 134.26 15.44 134.26 16.00C134.26 16.93 133.21 17.08 131.53 17.08C129.58 17.08 128.95 16.79 128.95 16.02C128.95 14.87 130.26 14.87 130.31 14.87ZM140.10 11.12L146.90 11.26C147.11 10.15 146.87 6.92 142.49 6.92C139.59 6.92 137.77 8.67 137.77 10.98C137.77 13.61 139.99 15.05 142.49 15.05C146.52 15.05 147.11 12.29 147.11 12.29L144.87 11.72C144.87 11.72 144.86 13.51 142.73 13.51C140.84 13.51 140.11 12.32 140.10 11.12ZM144.51 9.88L140.24 10.02C140.24 10.02 140.52 8.39 142.45 8.39C144.31 8.39 144.51 9.88 144.51 9.88Z"></path></g><!----><g data-v-423bf9ae="" id="c18e8f8e-a8f2-4b3d-9617-92cb5c982f31" transform="matrix(1.9266584802801152,0,0,1.9266584802801152,0.14571990797328738,0)" stroke="none" fill="white"><path d="M35.03 35.148c-7.732-3.146-11.661-3.487-15.821-3.848-4.101-.354-8.347-.729-16.382-3.95-.597.901-1.09 2.651-1.487 4.772 8.261 2.153 12.443 1.988 16.477 1.821 4.081-.168 8.298-.341 16.548 1.847 2.792.741 4.966 1.47 6.695 2.176-1.536-.849-3.491-1.785-6.03-2.818zM34.048 37.982c-8.068-2.141-12.008-1.98-16.182-1.808-4.11.17-8.367.338-16.739-1.835a85.795 85.795 0 0 0-.661 5.174c8.167.969 12.216.268 16.122-.416 4.021-.703 8.179-1.43 16.647-.348 3.312.424 5.807.94 7.732 1.5-1.709-.719-3.944-1.478-6.919-2.267zM16.801 41.31c-3.991.697-8.125 1.412-16.451.43-.17 1.895-.287 3.646-.35 4.945 8.365-.059 12.312-1.281 16.133-2.465 3.901-1.208 7.934-2.457 16.469-2.457 2.886 0 5.174.146 7.025.387-1.702-.43-3.83-.831-6.547-1.178-8.28-1.06-12.166-.381-16.279.338zM79.611 33.969c4.043.165 8.232.333 16.533-1.835-.41-2.307-.904-4.096-1.479-4.783-8.078 3.246-12.334 3.619-16.447 3.975-4.16.361-8.09.7-15.822 3.849-2.539 1.034-4.496 1.97-6.031 2.821 1.729-.707 3.904-1.438 6.699-2.178 8.248-2.19 12.467-2.016 16.547-1.849z"></path><path d="M94.041 25.278L85.287 0c-6.336 2.515-9.715 2.807-12.984 3.09-3.342.289-6.498.562-12.707 3.089-8.611 3.506-9.078 5.696-9.328 6.873-.121.565-.264 1.197-1.038 1.609v28.725c.004-.006.012-.012.017-.02.036-.052.068-.115.1-.184.065-.158.114-.348.174-.625.39-1.831 1.042-4.896 12.414-9.523 7.904-3.22 12.111-3.583 16.18-3.936 3.992-.345 8.119-.701 15.926-3.82z"></path><path d="M80.837 39.123c3.91.684 7.961 1.383 16.141.414a92.14 92.14 0 0 0-.633-5.184c-8.398 2.184-12.664 2.017-16.785 1.846-4.174-.171-8.113-.332-16.182 1.809-2.975.79-5.209 1.549-6.922 2.27 1.926-.56 4.422-1.076 7.734-1.5 8.466-1.085 12.628-.358 16.647.345zM81.294 44.247c3.82 1.183 7.768 2.406 16.133 2.466-.072-1.51-.188-3.213-.336-4.948-8.334.985-12.473.269-16.465-.429-4.113-.719-7.998-1.397-16.279-.338-2.715.348-4.844.75-6.545 1.178 1.85-.238 4.137-.387 7.023-.387 8.536 0 12.569 1.25 16.469 2.458zM47.907 42.533c.033.154.061.279.091.394V14.662c-.774-.412-.917-1.044-1.037-1.609-.251-1.177-.717-3.367-9.329-6.873-6.209-2.527-9.365-2.8-12.706-3.089-3.27-.283-6.647-.576-12.981-3.089L3.382 25.25c7.81 3.121 11.938 3.479 15.933 3.824 4.068.353 8.274.717 16.179 3.934 11.372 4.628 12.024 7.694 12.413 9.525z"></path></g><!----></svg>